PathFileType	4	(X/Y/Z)	C:\Users\WrightLab\Desktop\Jo\P2_Trial38.trc
DataRate	CameraRate	NumFrames	NumMarkers	Units	OrigDataRate	OrigDataStartFrame	OrigNumFrames
100.00	100.00	      45	19	mm	100.00	138	      1099
Frame#	Time	Headset_Front			Headset_Back			Headset_Left			Headset_Right			Left_Shoulder			Right_Shoulder			Sternum			C7			Left Elbow			Right Elbow			Left Wrist			Right Wrist			Left ASIS			Right ASIS			S2			Left Knee			Right Knee			Left Ankle			Right Ankle			
		X1	Y1	Z1	X2	Y2	Z2	X3	Y3	Z3	X4	Y4	Z4	X5	Y5	Z5	X6	Y6	Z6	X7	Y7	Z7	X8	Y8	Z8	X9	Y9	Z9	X10	Y10	Z10	X11	Y11	Z11	X12	Y12	Z12	X13	Y13	Z13	X14	Y14	Z14	X15	Y15	Z15	X16	Y16	Z16	X17	Y17	Z17	X18	Y18	Z18	X19	Y19	Z19	

138	1.370	-229.03224	1702.82788	1830.19409				-347.65030	1597.24768	1761.55322													-255.42564	1479.18359	1974.86145																			-303.64008	991.44104	2087.86743	-335.06787	488.84000	1784.08740				-306.82956	136.43488	1743.88965				
139	1.380	-231.02870	1702.76270	1820.56982				-349.58212	1596.65198	1752.01782													-257.11444	1480.71130	1967.14880																			-305.17001	993.46979	2082.34106	-337.90723	487.94730	1783.12073				-306.33615	136.18559	1744.51978				
140	1.390	-232.78532	1703.00671	1811.64783				-351.79865	1596.39099	1744.03052													-258.88193	1481.31995	1959.39233																			-306.92172	995.27490	2076.54150	-341.37592	488.01807	1783.02490				-306.47891	135.79019	1744.09021				
141	1.400	-234.96236	1703.29370	1803.94043				-353.91943	1595.49170	1736.15356													-260.62140	1482.76953	1951.39221																			-308.65887	997.31342	2072.56030	-344.74298	487.01953	1782.73926				-306.47891	135.79019	1744.09021				
142	1.410	-237.03830	1702.97546	1794.43884				-355.61237	1594.57581	1727.95410													-262.01843	1484.11304	1943.82471																			-309.89340	999.12616	2068.31543	-347.70389	486.65961	1782.39294				-308.77377	137.87640	1741.25879				
143	1.420	-238.74506	1702.06433	1784.77722				-357.32153	1593.85266	1720.32739													-262.85751	1484.40430	1935.89819																			-311.58667	1000.27875	2064.12549	-351.45261	486.98541	1782.19983				-308.90811	138.12990	1740.91956				
144	1.430	-240.41071	1701.58276	1775.83594				-358.62869	1592.09644	1712.53821													-264.01651	1485.62634	1929.24304																			-312.63577	1001.63983	2059.25293	-354.23721	486.36926	1782.37988				-307.87552	137.21805	1742.39673				
145	1.440	-241.99507	1701.05005	1768.02209				-359.76443	1591.04871	1704.32825													-265.12701	1486.10999	1922.08496																			-313.71332	1002.11829	2055.59741	-357.07278	486.91751	1781.95166				-307.87552	137.21805	1742.39673				
146	1.450	-243.43178	1700.37439	1759.77148				-361.31995	1589.16089	1698.17603													-266.40680	1486.88867	1915.57349																			-315.23276	1003.19305	2052.04297	-359.40274	486.11359	1783.81494				-309.91382	138.25716	1739.35107				
147	1.460	-244.26750	1698.80908	1750.93115				-361.58743	1587.38123	1690.49036													-267.41617	1487.13562	1908.11926																			-315.97888	1004.34723	2048.92920	-361.82855	485.85254	1781.95496				-309.93439	138.27808	1739.31873				
148	1.470	-245.16356	1698.21875	1742.10327				-362.49515	1585.89429	1684.01843													-268.40311	1487.06592	1900.96118																			-317.13123	1005.30847	2045.45410	-363.63181	485.56580	1783.11792				-309.73676	138.61147	1739.86914				
149	1.480	-246.35846	1697.22595	1734.20129				-364.26654	1584.62671	1677.86108													-269.19348	1487.79700	1894.94397																			-317.81516	1006.44171	2043.61487	-365.40900	485.05862	1783.48157				-310.26593	139.30508	1739.52063				
150	1.490	-247.26517	1696.28967	1725.77576				-364.67365	1582.37524	1668.69861													-269.33987	1487.96887	1888.59314																			-318.34579	1006.65857	2039.41821	-366.50531	484.76920	1783.15125				-310.26459	139.28801	1739.53992				
151	1.500	-248.06964	1695.33948	1718.50623				-365.76114	1581.43616	1664.20032													-270.51657	1488.95679	1882.51709																			-319.31812	1007.73004	2037.20654	-367.05768	484.41962	1783.55481				-308.52612	138.06361	1741.69324				
152	1.510	-248.08997	1694.22717	1711.21655				-365.70905	1579.91028	1657.32520													-271.71426	1488.35779	1876.02747																			-319.67892	1008.90131	2034.72803	-367.20898	484.02463	1782.78455				-307.87552	137.21805	1742.39673				
153	1.520	-248.52679	1693.48962	1704.81506				-366.49664	1577.81531	1649.29871													-272.47583	1488.34192	1869.35352																			-320.73083	1009.87146	2032.18042	-366.98682	483.93616	1782.57275				-307.87552	137.21805	1742.39673				
154	1.530	-248.84560	1691.78394	1696.57874				-367.28534	1577.21838	1644.47668													-273.23053	1489.06689	1864.94861																			-320.78580	1010.54059	2029.23450	-366.47028	483.37030	1781.98975				-307.87552	137.21805	1742.39673				
155	1.540	-249.39491	1690.28918	1690.73193				-367.20358	1575.33740	1637.79517													-274.14090	1488.82483	1858.78906																			-321.58701	1012.00330	2027.62134	-366.07965	483.41312	1781.67444				-309.00211	137.97694	1740.83154				
156	1.550	-249.68872	1689.24792	1685.68152				-368.46866	1574.40173	1631.75220													-275.11697	1488.35828	1852.25269																			-322.16461	1013.09625	2023.89600	-365.19742	482.91870	1782.43469				-309.45868	137.68648	1741.70361				
157	1.560	-249.98297	1687.92285	1678.15161				-368.76892	1573.70349	1627.82043													-275.41486	1489.01624	1847.51965																			-323.29956	1014.39752	2023.51868	-364.55991	483.12405	1781.95386				-310.00980	137.23241	1742.49902				
158	1.570	-250.24634	1687.04041	1673.48340				-368.96506	1572.30542	1619.76172													-276.10910	1488.88220	1842.06372																			-323.71439	1015.65515	2020.36633	-363.55887	483.50275	1781.11023				-309.91144	137.22180	1742.55627	-96.22301	229.25117	2092.79199	
159	1.580	-250.41029	1685.55920	1666.78479				-369.55533	1571.30798	1616.23706													-277.12271	1488.47656	1836.40894																			-325.03836	1016.55914	2018.40967	-362.95413	483.86258	1780.62146				-308.78308	138.29890	1742.61414	-96.89187	228.30121	2075.17725	
160	1.590	-250.92455	1683.79333	1661.40295				-370.00522	1569.33838	1609.92493													-277.50513	1488.98340	1832.87500																			-325.06552	1017.68640	2016.29504	-362.21011	483.90918	1783.03149				-308.71262	138.77434	1742.84314	-97.52319	224.62387	2058.17383	
161	1.600	-251.13480	1682.92859	1656.65344				-369.94135	1568.18237	1604.53369													-278.20093	1488.85510	1826.37817																			-325.66574	1018.97314	2014.30554	-361.79022	484.09128	1782.80200				-308.13306	138.62502	1743.52930	-95.43545	220.21431	2041.42773	
162	1.610	-251.88762	1681.22424	1650.89343				-370.67224	1567.17456	1599.24231													-278.72653	1488.71570	1823.78015																			-326.01389	1019.09283	2011.63794	-361.43463	484.23260	1782.87756				-308.11417	139.26697	1744.00110	-94.33530	218.47362	2027.72473	
163	1.620	-251.79381	1680.45508	1646.48779				-371.44498	1565.91711	1596.00171													-278.88211	1487.60828	1817.45325																			-326.37589	1020.44153	2009.98206	-360.94968	483.91180	1785.22583				-308.44452	139.46040	1744.59045	-93.12502	211.90324	2010.40747	
164	1.630	-252.51085	1678.94373	1640.06421				-371.46747	1563.75635	1589.53137													-279.13309	1487.67249	1814.11865																			-325.69034	1020.54877	2007.68506	-360.78159	484.16391	1786.37097				-308.44199	139.44760	1744.60559	-89.35827	204.98634	1991.86133	
165	1.640	-252.80382	1677.99707	1636.79358				-371.63629	1562.75342	1585.70618													-280.25339	1487.34753	1809.63330																			-325.05313	1020.94128	2005.09985	-360.56415	484.28665	1786.53528				-308.81738	139.58537	1745.23486	-85.85354	198.66057	1973.91174	
166	1.650	-253.73779	1676.32776	1630.93579				-372.90051	1560.74683	1580.94580													-280.33353	1487.41052	1807.14038																			-324.89105	1021.99170	2004.30188	-359.48178	483.37543	1788.92957				-307.84079	138.37294	1747.01733	-81.55865	190.82961	1955.95520	
167	1.660	-253.85764	1675.42151	1627.60327				-372.65720	1558.97119	1577.53589													-280.96207	1486.85022	1801.76563																			-324.32864	1022.29132	2002.77698	-359.54489	483.94147	1787.90796				-307.84079	138.37294	1747.01733	-77.10095	185.04536	1938.09595	
168	1.670	-254.70428	1673.15564	1621.64258				-373.40305	1556.75330	1571.94006													-280.62344	1486.48853	1798.52795																			-324.10693	1023.06598	2001.52832	-358.71796	483.72067	1789.31152				-307.48303	138.29388	1746.31531	-72.64501	178.93895	1923.03137	
169	1.680	-255.17572	1671.97290	1618.89441				-373.67551	1555.79736	1569.19897													-281.12573	1486.37634	1795.64990																			-322.62302	1022.45667	1998.24622	-357.79633	484.00455	1790.84607				-307.48303	138.29388	1746.31531	-68.21027	174.84467	1908.41125	
170	1.690	-255.94896	1670.21790	1613.42261				-374.38678	1554.39087	1565.67285													-282.04889	1485.94470	1792.41626																			-322.64319	1022.54523	1998.14050	-357.00284	483.90060	1791.46216				-307.62415	139.47446	1743.28711	-64.55990	172.53275	1896.20825	
171	1.700	-256.35068	1668.97864	1610.25696				-374.30798	1551.66248	1560.33398													-281.61630	1485.67810	1789.59998																			-322.14813	1022.41248	1996.57227	-356.44302	483.92722	1791.04248				-307.57935	139.46996	1743.31287	-59.50172	171.06091	1883.84167	
172	1.710	-257.46155	1667.63098	1605.42773				-374.68753	1550.77856	1558.32690													-281.72406	1485.03088	1786.93799																			-321.11417	1021.77789	1993.89978	-355.36273	483.54678	1790.65869				-307.57690	139.45750	1743.32751	-57.24781	170.95337	1871.08044	
173	1.720	-258.02072	1667.08899	1603.01855				-375.76413	1548.66724	1554.04541													-281.96289	1484.47180	1783.34875																			-320.35156	1021.76587	1991.68823	-352.98328	483.35812	1790.80957				-307.58594	138.84335	1742.83008	-56.62624	170.86372	1854.47485	
174	1.730	-258.64734	1665.60278	1597.27539				-376.08371	1547.47986	1551.37146													-281.88123	1483.85718	1780.52698																			-319.63562	1021.31018	1989.97766	-351.56989	483.31750	1788.94739				-307.58459	138.83493	1742.83997	-53.25367	171.52565	1843.31824	
175	1.740	-259.24405	1665.02515	1595.35376				-376.45233	1546.04150	1549.28467													-282.11148	1483.84570	1779.42517																			-318.99091	1021.07172	1988.42651	-350.48584	483.65717	1787.63867				-307.58743	138.82191	1742.85278	-49.45940	172.05998	1832.02271	
176	1.750	-260.17953	1663.91199	1591.09375				-376.71429	1543.90491	1545.11096													-282.16766	1483.87646	1777.64539																			-318.11691	1020.47021	1986.23560	-349.36496	483.27676	1786.12964				-308.23245	138.59035	1741.99597	-51.08088	175.64981	1817.26819	
177	1.760	-260.94067	1662.89563	1588.55896				-377.47141	1542.98267	1542.94348													-281.85278	1483.01196	1774.15637																			-317.99066	1021.09454	1985.25085	-347.98535	483.79370	1782.97900				-308.56351	138.28435	1741.46753	-50.68919	177.82603	1805.12671	
178	1.770	-261.08331	1661.90881	1586.16528				-377.44446	1541.34448	1541.38391													-282.05786	1482.60547	1772.13098																			-317.25912	1021.06683	1983.38855	-347.22900	484.35919	1779.15027				-308.72592	137.89461	1741.26111	-51.96505	179.63480	1792.94263	
179	1.780	-262.25586	1660.48059	1582.44507				-378.26691	1540.22815	1539.06836													-281.56354	1482.31128	1769.83643																			-316.35400	1020.08740	1981.09290	-346.65222	484.09769	1777.47144				-308.83792	137.88675	1741.21765	-51.69623	183.60307	1788.29150	
180	1.790	-262.73099	1659.95972	1580.93335				-379.07855	1538.82581	1535.93799													-281.46149	1482.75732	1768.78467																			-316.37091	1020.10657	1980.38904	-346.38806	484.65048	1775.22229				-309.43268	137.42958	1741.50195	-53.21356	185.53958	1783.37280	
181	1.800	-263.35333	1659.31641	1578.94043				-379.38806	1538.06946	1534.63489													-281.49448	1482.84155	1768.64172																			-315.98962	1019.98718	1979.04688	-346.13675	484.13138	1773.28271				-309.84015	137.06059	1741.65344	-58.65237	183.06349	1774.00610	
182	1.810	-264.42563	1658.34119	1575.46313				-379.59229	1537.11780	1533.46094													-280.21600	1482.33398	1766.07617																			-315.77475	1020.74835	1977.91675	-346.15683	484.67368	1768.07178				-310.20697	136.81503	1741.04224	-63.29313	183.05727	1771.58765	
